<?xml version="1.0" encoding="UTF-8" standalone="no"?>
<!DOCTYPE svg PUBLIC "-//W3C//DTD SVG 1.1//EN"
 "http://www.w3.org/Graphics/SVG/1.1/DTD/svg11.dtd">
<!-- Generated by graphviz version 7.0.5 (20221223.1930)
 -->
<!-- Pages: 1 -->
<svg width="416pt" height="622pt"
 viewBox="0.00 0.00 416.00 622.00" xmlns="http://www.w3.org/2000/svg" xmlns:xlink="http://www.w3.org/1999/xlink">
<g id="graph0" class="graph" transform="scale(1 1) rotate(0) translate(4 618)">
<polygon fill="white" stroke="none" points="-4,4 -4,-618 412,-618 412,4 -4,4"/>
<!-- 5508374560 -->
<g id="node1" class="node">
<title>5508374560</title>
<polygon fill="#caff70" stroke="black" points="229,-31 164,-31 164,0 229,0 229,-31"/>
<text text-anchor="middle" x="196.5" y="-7" font-family="monospace" font-size="10.00"> (1, 10)</text>
</g>
<!-- 6003096016 -->
<g id="node2" class="node">
<title>6003096016</title>
<polygon fill="lightgrey" stroke="black" points="289,-185 104,-185 104,-67 289,-67 289,-185"/>
<text text-anchor="middle" x="196.5" y="-173" font-family="monospace" font-size="10.00">AddmmBackward0</text>
<text text-anchor="middle" x="196.5" y="-162" font-family="monospace" font-size="10.00">&#45;&#45;&#45;&#45;&#45;&#45;&#45;&#45;&#45;&#45;&#45;&#45;&#45;&#45;&#45;&#45;&#45;&#45;&#45;&#45;&#45;&#45;&#45;&#45;&#45;&#45;&#45;&#45;</text>
<text text-anchor="middle" x="196.5" y="-151" font-family="monospace" font-size="10.00">alpha &#160;&#160;&#160;&#160;&#160;&#160;: &#160;&#160;&#160;&#160;&#160;&#160;&#160;&#160;&#160;&#160;&#160;&#160;&#160;1</text>
<text text-anchor="middle" x="196.5" y="-140" font-family="monospace" font-size="10.00">beta &#160;&#160;&#160;&#160;&#160;&#160;&#160;: &#160;&#160;&#160;&#160;&#160;&#160;&#160;&#160;&#160;&#160;&#160;&#160;&#160;1</text>
<text text-anchor="middle" x="196.5" y="-129" font-family="monospace" font-size="10.00">mat1 &#160;&#160;&#160;&#160;&#160;&#160;&#160;: [saved tensor]</text>
<text text-anchor="middle" x="196.5" y="-118" font-family="monospace" font-size="10.00">mat1_sizes &#160;: &#160;&#160;&#160;&#160;&#160;&#160;(1, 256)</text>
<text text-anchor="middle" x="196.5" y="-107" font-family="monospace" font-size="10.00">mat1_strides: &#160;&#160;&#160;&#160;&#160;&#160;(256, 1)</text>
<text text-anchor="middle" x="196.5" y="-96" font-family="monospace" font-size="10.00">mat2 &#160;&#160;&#160;&#160;&#160;&#160;&#160;: [saved tensor]</text>
<text text-anchor="middle" x="196.5" y="-85" font-family="monospace" font-size="10.00">mat2_sizes &#160;: &#160;&#160;&#160;&#160;&#160;(256, 10)</text>
<text text-anchor="middle" x="196.5" y="-74" font-family="monospace" font-size="10.00">mat2_strides: &#160;&#160;&#160;&#160;&#160;&#160;(1, 256)</text>
</g>
<!-- 6003096016&#45;&gt;5508374560 -->
<g id="edge13" class="edge">
<title>6003096016&#45;&gt;5508374560</title>
<path fill="none" stroke="black" d="M196.5,-66.62C196.5,-58.27 196.5,-50.04 196.5,-42.75"/>
<polygon fill="black" stroke="black" points="200,-43.01 196.5,-33.01 193,-43.01 200,-43.01"/>
</g>
<!-- 6003090976 -->
<g id="node3" class="node">
<title>6003090976</title>
<polygon fill="lightgrey" stroke="black" points="101,-251 0,-251 0,-232 101,-232 101,-251"/>
<text text-anchor="middle" x="50.5" y="-239" font-family="monospace" font-size="10.00">AccumulateGrad</text>
</g>
<!-- 6003090976&#45;&gt;6003096016 -->
<g id="edge1" class="edge">
<title>6003090976&#45;&gt;6003096016</title>
<path fill="none" stroke="black" d="M61.96,-231.59C73.49,-222.63 92.41,-207.92 112.46,-192.33"/>
<polygon fill="black" stroke="black" points="114.48,-195.2 120.23,-186.29 110.18,-189.67 114.48,-195.2"/>
</g>
<!-- 6004348288 -->
<g id="node4" class="node">
<title>6004348288</title>
<polygon fill="lightblue" stroke="black" points="86,-372 9,-372 9,-342 86,-342 86,-372"/>
<text text-anchor="middle" x="47.5" y="-360" font-family="monospace" font-size="10.00">net.3.bias</text>
<text text-anchor="middle" x="47.5" y="-349" font-family="monospace" font-size="10.00"> (10)</text>
</g>
<!-- 6004348288&#45;&gt;6003090976 -->
<g id="edge2" class="edge">
<title>6004348288&#45;&gt;6003090976</title>
<path fill="none" stroke="black" d="M47.88,-341.63C48.41,-321.59 49.37,-285.17 49.97,-262.49"/>
<polygon fill="black" stroke="black" points="53.46,-262.83 50.23,-252.74 46.47,-262.65 53.46,-262.83"/>
</g>
<!-- 6003090064 -->
<g id="node5" class="node">
<title>6003090064</title>
<polygon fill="lightgrey" stroke="black" points="271,-262 122,-262 122,-221 271,-221 271,-262"/>
<text text-anchor="middle" x="196.5" y="-250" font-family="monospace" font-size="10.00">ReluBackward0</text>
<text text-anchor="middle" x="196.5" y="-239" font-family="monospace" font-size="10.00">&#45;&#45;&#45;&#45;&#45;&#45;&#45;&#45;&#45;&#45;&#45;&#45;&#45;&#45;&#45;&#45;&#45;&#45;&#45;&#45;&#45;&#45;</text>
<text text-anchor="middle" x="196.5" y="-228" font-family="monospace" font-size="10.00">result: [saved tensor]</text>
</g>
<!-- 6003090064&#45;&gt;6003096016 -->
<g id="edge3" class="edge">
<title>6003090064&#45;&gt;6003096016</title>
<path fill="none" stroke="black" d="M196.5,-220.73C196.5,-213.67 196.5,-205.27 196.5,-196.43"/>
<polygon fill="black" stroke="black" points="200,-196.58 196.5,-186.58 193,-196.58 200,-196.58"/>
</g>
<!-- 6003093808 -->
<g id="node6" class="node">
<title>6003093808</title>
<polygon fill="lightgrey" stroke="black" points="289,-416 104,-416 104,-298 289,-298 289,-416"/>
<text text-anchor="middle" x="196.5" y="-404" font-family="monospace" font-size="10.00">AddmmBackward0</text>
<text text-anchor="middle" x="196.5" y="-393" font-family="monospace" font-size="10.00">&#45;&#45;&#45;&#45;&#45;&#45;&#45;&#45;&#45;&#45;&#45;&#45;&#45;&#45;&#45;&#45;&#45;&#45;&#45;&#45;&#45;&#45;&#45;&#45;&#45;&#45;&#45;&#45;</text>
<text text-anchor="middle" x="196.5" y="-382" font-family="monospace" font-size="10.00">alpha &#160;&#160;&#160;&#160;&#160;&#160;: &#160;&#160;&#160;&#160;&#160;&#160;&#160;&#160;&#160;&#160;&#160;&#160;&#160;1</text>
<text text-anchor="middle" x="196.5" y="-371" font-family="monospace" font-size="10.00">beta &#160;&#160;&#160;&#160;&#160;&#160;&#160;: &#160;&#160;&#160;&#160;&#160;&#160;&#160;&#160;&#160;&#160;&#160;&#160;&#160;1</text>
<text text-anchor="middle" x="196.5" y="-360" font-family="monospace" font-size="10.00">mat1 &#160;&#160;&#160;&#160;&#160;&#160;&#160;: [saved tensor]</text>
<text text-anchor="middle" x="196.5" y="-349" font-family="monospace" font-size="10.00">mat1_sizes &#160;: &#160;&#160;&#160;&#160;&#160;&#160;&#160;&#160;(1, 3)</text>
<text text-anchor="middle" x="196.5" y="-338" font-family="monospace" font-size="10.00">mat1_strides: &#160;&#160;&#160;&#160;&#160;&#160;&#160;&#160;&#160;&#160;&#160;&#160;()</text>
<text text-anchor="middle" x="196.5" y="-327" font-family="monospace" font-size="10.00">mat2 &#160;&#160;&#160;&#160;&#160;&#160;&#160;: &#160;&#160;&#160;&#160;&#160;&#160;&#160;&#160;&#160;&#160;None</text>
<text text-anchor="middle" x="196.5" y="-316" font-family="monospace" font-size="10.00">mat2_sizes &#160;: &#160;&#160;&#160;&#160;&#160;&#160;(3, 256)</text>
<text text-anchor="middle" x="196.5" y="-305" font-family="monospace" font-size="10.00">mat2_strides: &#160;&#160;&#160;&#160;&#160;&#160;&#160;&#160;(1, 3)</text>
</g>
<!-- 6003093808&#45;&gt;6003090064 -->
<g id="edge4" class="edge">
<title>6003093808&#45;&gt;6003090064</title>
<path fill="none" stroke="black" d="M196.5,-297.59C196.5,-289.35 196.5,-281.15 196.5,-273.7"/>
<polygon fill="black" stroke="black" points="200,-273.86 196.5,-263.86 193,-273.86 200,-273.86"/>
</g>
<!-- 6003088048 -->
<g id="node7" class="node">
<title>6003088048</title>
<polygon fill="lightgrey" stroke="black" points="170,-476.5 69,-476.5 69,-457.5 170,-457.5 170,-476.5"/>
<text text-anchor="middle" x="119.5" y="-464.5" font-family="monospace" font-size="10.00">AccumulateGrad</text>
</g>
<!-- 6003088048&#45;&gt;6003093808 -->
<g id="edge5" class="edge">
<title>6003088048&#45;&gt;6003093808</title>
<path fill="none" stroke="black" d="M125.8,-457.16C131.15,-449.66 139.36,-438.14 148.33,-425.57"/>
<polygon fill="black" stroke="black" points="151.12,-427.68 154.07,-417.51 145.42,-423.62 151.12,-427.68"/>
</g>
<!-- 6002370864 -->
<g id="node8" class="node">
<title>6002370864</title>
<polygon fill="lightblue" stroke="black" points="158,-548 81,-548 81,-518 158,-518 158,-548"/>
<text text-anchor="middle" x="119.5" y="-536" font-family="monospace" font-size="10.00">net.1.bias</text>
<text text-anchor="middle" x="119.5" y="-525" font-family="monospace" font-size="10.00"> (256)</text>
</g>
<!-- 6002370864&#45;&gt;6003088048 -->
<g id="edge6" class="edge">
<title>6002370864&#45;&gt;6003088048</title>
<path fill="none" stroke="black" d="M119.5,-517.8C119.5,-509.09 119.5,-497.81 119.5,-488.18"/>
<polygon fill="black" stroke="black" points="123,-488.36 119.5,-478.36 116,-488.36 123,-488.36"/>
</g>
<!-- 6003090400 -->
<g id="node9" class="node">
<title>6003090400</title>
<polygon fill="lightgrey" stroke="black" points="265,-476.5 188,-476.5 188,-457.5 265,-457.5 265,-476.5"/>
<text text-anchor="middle" x="226.5" y="-464.5" font-family="monospace" font-size="10.00">TBackward0</text>
</g>
<!-- 6003090400&#45;&gt;6003093808 -->
<g id="edge7" class="edge">
<title>6003090400&#45;&gt;6003093808</title>
<path fill="none" stroke="black" d="M224.04,-457.16C222.04,-449.95 219.01,-439.03 215.67,-427.03"/>
<polygon fill="black" stroke="black" points="219.14,-426.43 213.09,-417.73 212.4,-428.3 219.14,-426.43"/>
</g>
<!-- 6003091408 -->
<g id="node10" class="node">
<title>6003091408</title>
<polygon fill="lightgrey" stroke="black" points="277,-542.5 176,-542.5 176,-523.5 277,-523.5 277,-542.5"/>
<text text-anchor="middle" x="226.5" y="-530.5" font-family="monospace" font-size="10.00">AccumulateGrad</text>
</g>
<!-- 6003091408&#45;&gt;6003090400 -->
<g id="edge8" class="edge">
<title>6003091408&#45;&gt;6003090400</title>
<path fill="none" stroke="black" d="M226.5,-523.1C226.5,-514.12 226.5,-499.95 226.5,-488.22"/>
<polygon fill="black" stroke="black" points="230,-488.34 226.5,-478.34 223,-488.34 230,-488.34"/>
</g>
<!-- 6004352768 -->
<g id="node11" class="node">
<title>6004352768</title>
<polygon fill="lightblue" stroke="black" points="271,-614 182,-614 182,-584 271,-584 271,-614"/>
<text text-anchor="middle" x="226.5" y="-602" font-family="monospace" font-size="10.00">net.1.weight</text>
<text text-anchor="middle" x="226.5" y="-591" font-family="monospace" font-size="10.00"> (256, 3)</text>
</g>
<!-- 6004352768&#45;&gt;6003091408 -->
<g id="edge9" class="edge">
<title>6004352768&#45;&gt;6003091408</title>
<path fill="none" stroke="black" d="M226.5,-583.8C226.5,-575.09 226.5,-563.81 226.5,-554.18"/>
<polygon fill="black" stroke="black" points="230,-554.36 226.5,-544.36 223,-554.36 230,-554.36"/>
</g>
<!-- 6003089728 -->
<g id="node12" class="node">
<title>6003089728</title>
<polygon fill="lightgrey" stroke="black" points="381,-251 304,-251 304,-232 381,-232 381,-251"/>
<text text-anchor="middle" x="342.5" y="-239" font-family="monospace" font-size="10.00">TBackward0</text>
</g>
<!-- 6003089728&#45;&gt;6003096016 -->
<g id="edge10" class="edge">
<title>6003089728&#45;&gt;6003096016</title>
<path fill="none" stroke="black" d="M331.04,-231.59C319.51,-222.63 300.59,-207.92 280.54,-192.33"/>
<polygon fill="black" stroke="black" points="282.82,-189.67 272.77,-186.29 278.52,-195.2 282.82,-189.67"/>
</g>
<!-- 4727457488 -->
<g id="node13" class="node">
<title>4727457488</title>
<polygon fill="lightgrey" stroke="black" points="408,-366.5 307,-366.5 307,-347.5 408,-347.5 408,-366.5"/>
<text text-anchor="middle" x="357.5" y="-354.5" font-family="monospace" font-size="10.00">AccumulateGrad</text>
</g>
<!-- 4727457488&#45;&gt;6003089728 -->
<g id="edge11" class="edge">
<title>4727457488&#45;&gt;6003089728</title>
<path fill="none" stroke="black" d="M356.32,-347.09C353.94,-329.03 348.47,-287.67 345.17,-262.71"/>
<polygon fill="black" stroke="black" points="348.65,-262.32 343.87,-252.87 341.71,-263.24 348.65,-262.32"/>
</g>
<!-- 6004347008 -->
<g id="node14" class="node">
<title>6004347008</title>
<polygon fill="lightblue" stroke="black" points="402,-482 313,-482 313,-452 402,-452 402,-482"/>
<text text-anchor="middle" x="357.5" y="-470" font-family="monospace" font-size="10.00">net.3.weight</text>
<text text-anchor="middle" x="357.5" y="-459" font-family="monospace" font-size="10.00"> (10, 256)</text>
</g>
<!-- 6004347008&#45;&gt;4727457488 -->
<g id="edge12" class="edge">
<title>6004347008&#45;&gt;4727457488</title>
<path fill="none" stroke="black" d="M357.5,-451.88C357.5,-433.04 357.5,-399.57 357.5,-378.1"/>
<polygon fill="black" stroke="black" points="361,-378.3 357.5,-368.3 354,-378.3 361,-378.3"/>
</g>
</g>
</svg>
