<?xml version="1.0" encoding="UTF-8" standalone="no"?>
<!DOCTYPE svg PUBLIC "-//W3C//DTD SVG 1.1//EN"
 "http://www.w3.org/Graphics/SVG/1.1/DTD/svg11.dtd">
<!-- Generated by graphviz version 7.0.5 (20221223.1930)
 -->
<!-- Pages: 1 -->
<svg width="339pt" height="413pt"
 viewBox="0.00 0.00 339.00 413.00" xmlns="http://www.w3.org/2000/svg" xmlns:xlink="http://www.w3.org/1999/xlink">
<g id="graph0" class="graph" transform="scale(1 1) rotate(0) translate(4 409)">
<polygon fill="white" stroke="none" points="-4,4 -4,-409 335,-409 335,4 -4,4"/>
<!-- 6284004784 -->
<g id="node1" class="node">
<title>6284004784</title>
<polygon fill="#caff70" stroke="black" points="199,-31 134,-31 134,0 199,0 199,-31"/>
<text text-anchor="middle" x="166.5" y="-7" font-family="monospace" font-size="10.00"> (1, 10)</text>
</g>
<!-- 6314235824 -->
<g id="node2" class="node">
<title>6314235824</title>
<polygon fill="lightgrey" stroke="black" points="217,-86 116,-86 116,-67 217,-67 217,-86"/>
<text text-anchor="middle" x="166.5" y="-74" font-family="monospace" font-size="10.00">AddmmBackward0</text>
</g>
<!-- 6314235824&#45;&gt;6284004784 -->
<g id="edge13" class="edge">
<title>6314235824&#45;&gt;6284004784</title>
<path fill="none" stroke="black" d="M166.5,-66.54C166.5,-60.07 166.5,-50.98 166.5,-42.32"/>
<polygon fill="black" stroke="black" points="170,-42.58 166.5,-32.58 163,-42.58 170,-42.58"/>
</g>
<!-- 6314234768 -->
<g id="node3" class="node">
<title>6314234768</title>
<polygon fill="lightgrey" stroke="black" points="101,-141 0,-141 0,-122 101,-122 101,-141"/>
<text text-anchor="middle" x="50.5" y="-129" font-family="monospace" font-size="10.00">AccumulateGrad</text>
</g>
<!-- 6314234768&#45;&gt;6314235824 -->
<g id="edge1" class="edge">
<title>6314234768&#45;&gt;6314235824</title>
<path fill="none" stroke="black" d="M70.18,-121.51C88.45,-113.16 115.91,-100.61 136.85,-91.05"/>
<polygon fill="black" stroke="black" points="138.1,-94.33 145.74,-86.99 135.19,-87.96 138.1,-94.33"/>
</g>
<!-- 6278166896 -->
<g id="node4" class="node">
<title>6278166896</title>
<polygon fill="lightblue" stroke="black" points="89,-207 12,-207 12,-177 89,-177 89,-207"/>
<text text-anchor="middle" x="50.5" y="-195" font-family="monospace" font-size="10.00">net.3.bias</text>
<text text-anchor="middle" x="50.5" y="-184" font-family="monospace" font-size="10.00"> (10)</text>
</g>
<!-- 6278166896&#45;&gt;6314234768 -->
<g id="edge2" class="edge">
<title>6278166896&#45;&gt;6314234768</title>
<path fill="none" stroke="black" d="M50.5,-176.54C50.5,-169.34 50.5,-160.53 50.5,-152.68"/>
<polygon fill="black" stroke="black" points="54,-152.69 50.5,-142.69 47,-152.69 54,-152.69"/>
</g>
<!-- 6314233232 -->
<g id="node5" class="node">
<title>6314233232</title>
<polygon fill="lightgrey" stroke="black" points="214,-141 119,-141 119,-122 214,-122 214,-141"/>
<text text-anchor="middle" x="166.5" y="-129" font-family="monospace" font-size="10.00">ReluBackward0</text>
</g>
<!-- 6314233232&#45;&gt;6314235824 -->
<g id="edge3" class="edge">
<title>6314233232&#45;&gt;6314235824</title>
<path fill="none" stroke="black" d="M166.5,-121.75C166.5,-115.27 166.5,-106.16 166.5,-97.9"/>
<polygon fill="black" stroke="black" points="170,-97.96 166.5,-87.96 163,-97.96 170,-97.96"/>
</g>
<!-- 6314232944 -->
<g id="node6" class="node">
<title>6314232944</title>
<polygon fill="lightgrey" stroke="black" points="212,-201.5 111,-201.5 111,-182.5 212,-182.5 212,-201.5"/>
<text text-anchor="middle" x="161.5" y="-189.5" font-family="monospace" font-size="10.00">AddmmBackward0</text>
</g>
<!-- 6314232944&#45;&gt;6314233232 -->
<g id="edge4" class="edge">
<title>6314232944&#45;&gt;6314233232</title>
<path fill="none" stroke="black" d="M162.24,-182.37C162.91,-174.5 163.93,-162.6 164.8,-152.39"/>
<polygon fill="black" stroke="black" points="168.27,-152.94 165.63,-142.68 161.29,-152.34 168.27,-152.94"/>
</g>
<!-- 6314235920 -->
<g id="node7" class="node">
<title>6314235920</title>
<polygon fill="lightgrey" stroke="black" points="114,-267.5 13,-267.5 13,-248.5 114,-248.5 114,-267.5"/>
<text text-anchor="middle" x="63.5" y="-255.5" font-family="monospace" font-size="10.00">AccumulateGrad</text>
</g>
<!-- 6314235920&#45;&gt;6314232944 -->
<g id="edge5" class="edge">
<title>6314235920&#45;&gt;6314232944</title>
<path fill="none" stroke="black" d="M77.13,-248.1C93,-237.74 119.47,-220.45 138.53,-208"/>
<polygon fill="black" stroke="black" points="140.26,-211.05 146.72,-202.65 136.44,-205.19 140.26,-211.05"/>
</g>
<!-- 6270936912 -->
<g id="node8" class="node">
<title>6270936912</title>
<polygon fill="lightblue" stroke="black" points="102,-339 25,-339 25,-309 102,-309 102,-339"/>
<text text-anchor="middle" x="63.5" y="-327" font-family="monospace" font-size="10.00">net.1.bias</text>
<text text-anchor="middle" x="63.5" y="-316" font-family="monospace" font-size="10.00"> (256)</text>
</g>
<!-- 6270936912&#45;&gt;6314235920 -->
<g id="edge6" class="edge">
<title>6270936912&#45;&gt;6314235920</title>
<path fill="none" stroke="black" d="M63.5,-308.8C63.5,-300.09 63.5,-288.81 63.5,-279.18"/>
<polygon fill="black" stroke="black" points="67,-279.36 63.5,-269.36 60,-279.36 67,-279.36"/>
</g>
<!-- 6314235584 -->
<g id="node9" class="node">
<title>6314235584</title>
<polygon fill="lightgrey" stroke="black" points="209,-267.5 132,-267.5 132,-248.5 209,-248.5 209,-267.5"/>
<text text-anchor="middle" x="170.5" y="-255.5" font-family="monospace" font-size="10.00">TBackward0</text>
</g>
<!-- 6314235584&#45;&gt;6314232944 -->
<g id="edge7" class="edge">
<title>6314235584&#45;&gt;6314232944</title>
<path fill="none" stroke="black" d="M169.25,-248.1C167.99,-239.12 165.99,-224.95 164.34,-213.22"/>
<polygon fill="black" stroke="black" points="167.81,-212.74 162.95,-203.32 160.88,-213.71 167.81,-212.74"/>
</g>
<!-- 6314232512 -->
<g id="node10" class="node">
<title>6314232512</title>
<polygon fill="lightgrey" stroke="black" points="221,-333.5 120,-333.5 120,-314.5 221,-314.5 221,-333.5"/>
<text text-anchor="middle" x="170.5" y="-321.5" font-family="monospace" font-size="10.00">AccumulateGrad</text>
</g>
<!-- 6314232512&#45;&gt;6314235584 -->
<g id="edge8" class="edge">
<title>6314232512&#45;&gt;6314235584</title>
<path fill="none" stroke="black" d="M170.5,-314.1C170.5,-305.12 170.5,-290.95 170.5,-279.22"/>
<polygon fill="black" stroke="black" points="174,-279.34 170.5,-269.34 167,-279.34 174,-279.34"/>
</g>
<!-- 6278166256 -->
<g id="node11" class="node">
<title>6278166256</title>
<polygon fill="lightblue" stroke="black" points="215,-405 126,-405 126,-375 215,-375 215,-405"/>
<text text-anchor="middle" x="170.5" y="-393" font-family="monospace" font-size="10.00">net.1.weight</text>
<text text-anchor="middle" x="170.5" y="-382" font-family="monospace" font-size="10.00"> (256, 3)</text>
</g>
<!-- 6278166256&#45;&gt;6314232512 -->
<g id="edge9" class="edge">
<title>6278166256&#45;&gt;6314232512</title>
<path fill="none" stroke="black" d="M170.5,-374.8C170.5,-366.09 170.5,-354.81 170.5,-345.18"/>
<polygon fill="black" stroke="black" points="174,-345.36 170.5,-335.36 167,-345.36 174,-345.36"/>
</g>
<!-- 6314234912 -->
<g id="node12" class="node">
<title>6314234912</title>
<polygon fill="lightgrey" stroke="black" points="314,-141 237,-141 237,-122 314,-122 314,-141"/>
<text text-anchor="middle" x="275.5" y="-129" font-family="monospace" font-size="10.00">TBackward0</text>
</g>
<!-- 6314234912&#45;&gt;6314235824 -->
<g id="edge10" class="edge">
<title>6314234912&#45;&gt;6314235824</title>
<path fill="none" stroke="black" d="M257.01,-121.51C240,-113.24 214.51,-100.84 194.91,-91.31"/>
<polygon fill="black" stroke="black" points="196.6,-88.25 186.08,-87.02 193.54,-94.54 196.6,-88.25"/>
</g>
<!-- 6314231072 -->
<g id="node13" class="node">
<title>6314231072</title>
<polygon fill="lightgrey" stroke="black" points="331,-201.5 230,-201.5 230,-182.5 331,-182.5 331,-201.5"/>
<text text-anchor="middle" x="280.5" y="-189.5" font-family="monospace" font-size="10.00">AccumulateGrad</text>
</g>
<!-- 6314231072&#45;&gt;6314234912 -->
<g id="edge11" class="edge">
<title>6314231072&#45;&gt;6314234912</title>
<path fill="none" stroke="black" d="M279.76,-182.37C279.09,-174.5 278.07,-162.6 277.2,-152.39"/>
<polygon fill="black" stroke="black" points="280.71,-152.34 276.37,-142.68 273.73,-152.94 280.71,-152.34"/>
</g>
<!-- 6278165056 -->
<g id="node14" class="node">
<title>6278165056</title>
<polygon fill="lightblue" stroke="black" points="325,-273 236,-273 236,-243 325,-243 325,-273"/>
<text text-anchor="middle" x="280.5" y="-261" font-family="monospace" font-size="10.00">net.3.weight</text>
<text text-anchor="middle" x="280.5" y="-250" font-family="monospace" font-size="10.00"> (10, 256)</text>
</g>
<!-- 6278165056&#45;&gt;6314231072 -->
<g id="edge12" class="edge">
<title>6278165056&#45;&gt;6314231072</title>
<path fill="none" stroke="black" d="M280.5,-242.8C280.5,-234.09 280.5,-222.81 280.5,-213.18"/>
<polygon fill="black" stroke="black" points="284,-213.36 280.5,-203.36 277,-213.36 284,-213.36"/>
</g>
</g>
</svg>
